<svg xmlns="http://www.w3.org/2000/svg" width="1280" height="720" viewBox="0 0 1280 720">
<rect width="100%" height="100%" fill="#f7fbff"/>
<style>.title{font:700 26px Arial;fill:#111}.sub{font:16px Arial;fill:#222}.small{font:13px Arial;fill:#333}.tiny{font:11px Arial;fill:#333}.box{fill:#e8f4ff;stroke:#6aa1d8;stroke-width:1.4}.hot{fill:#ffe6e6;stroke:#d93025;stroke-width:2.5}.ok{fill:#e6f4ea;stroke:#188038;stroke-width:2}.note{fill:#fff7d6;stroke:#d9a300;stroke-width:1.5}.gray{fill:#eeeeee;stroke:#888}.node{fill:#dbeafe;stroke:#2b73bd;stroke-width:2}.data{fill:#fef3c7;stroke:#b7791f;stroke-width:1.5}.link{fill:#ecfdf5;stroke:#047857;stroke-width:1.5}.ptr{stroke:#4b5563;stroke-width:2.2;fill:none;marker-end:url(#arr)}.redptr{stroke:#dc2626;stroke-width:3;fill:none;marker-end:url(#arrRed)}.dash{stroke:#777;stroke-width:2;fill:none;stroke-dasharray:6 5;marker-end:url(#arr)}</style>
<defs><marker id="arr" markerWidth="10" markerHeight="10" refX="8" refY="3" orient="auto"><path d="M0,0 L0,6 L9,3 z" fill="#4b5563"/></marker><marker id="arrRed" markerWidth="10" markerHeight="10" refX="8" refY="3" orient="auto"><path d="M0,0 L0,6 L9,3 z" fill="#dc2626"/></marker></defs>
<rect x="28" y="22" width="1220" height="72" rx="14" fill="#e8f2ff" stroke="#4f8bd6" stroke-width="2"/>
<text x="54" y="58" class="title">Linked Stack and Queue</text>
<text x="54" y="82" class="sub">Step 7 / 8 - 由 C++ 程式輸出 step-by-step SVG 動畫</text>
<rect x="790" y="130" width="420" height="160" rx="8" class="box"/>
<text x="815" y="162" class="title">Step state table</text>
<text x="815" y="195" class="sub">Current step = 7</text>
<text x="815" y="225" class="small">Red = this step's active pointer/data change</text>
<text x="815" y="252" class="small">Blue/gray = existing structure or waiting nodes</text>
<rect x="790" y="315" width="420" height="190" rx="8" class="note"/>
<text x="815" y="348" class="title">Animation focus</text>
<text x="815" y="382" class="small">- Stack 在 top push/pop</text>
<text x="815" y="406" class="small">- Queue 在 rear 插入、front 刪除</text>
<text x="815" y="430" class="small">- 比較 LIFO 與 FIFO</text>
<text x="60" y="135" class="sub">Linked stack uses top; linked queue uses front and rear.</text>
<text x="100" y="190" class="sub">Stack push/pop at top (LIFO)</text>
<rect x="120" y="230" width="78" height="52" rx="8" class="data"/>
<text x="159" y="262" font-family="Arial" font-size="18" text-anchor="middle">A</text>
<rect x="198" y="230" width="38" height="52" rx="8" class="link"/>
<text x="217" y="262" font-family="Arial" font-size="18" text-anchor="middle">*</text>
<line x1="178" y1="282" x2="178" y2="295" class="ptr"/>
<rect x="120" y="295" width="78" height="52" rx="8" class="data"/>
<text x="159" y="327" font-family="Arial" font-size="18" text-anchor="middle">B</text>
<rect x="198" y="295" width="38" height="52" rx="8" class="link"/>
<text x="217" y="327" font-family="Arial" font-size="18" text-anchor="middle">*</text>
<line x1="178" y1="347" x2="178" y2="360" class="ptr"/>
<rect x="120" y="360" width="78" height="52" rx="8" class="data"/>
<text x="159" y="392" font-family="Arial" font-size="18" text-anchor="middle">C</text>
<rect x="198" y="360" width="38" height="52" rx="8" class="link"/>
<text x="217" y="392" font-family="Arial" font-size="18" text-anchor="middle">*</text>
<text x="70" y="250" class="small">top</text>
<line x1="105" y1="245" x2="120" y2="245" class="redptr"/>
<text x="430" y="190" class="sub">Queue enqueue at rear, dequeue at front (FIFO)</text>
<rect x="450" y="250" width="78" height="52" rx="8" class="hot"/>
<text x="489" y="282" font-family="Arial" font-size="18" text-anchor="middle">X</text>
<rect x="528" y="250" width="38" height="52" rx="8" class="link"/>
<text x="547" y="282" font-family="Arial" font-size="18" text-anchor="middle">*</text>
<line x1="566" y1="276" x2="600" y2="276" class="ptr"/>
<rect x="600" y="250" width="78" height="52" rx="8" class="hot"/>
<text x="639" y="282" font-family="Arial" font-size="18" text-anchor="middle">Y</text>
<rect x="678" y="250" width="38" height="52" rx="8" class="link"/>
<text x="697" y="282" font-family="Arial" font-size="18" text-anchor="middle">*</text>
<line x1="716" y1="276" x2="750" y2="276" class="ptr"/>
<rect x="750" y="250" width="78" height="52" rx="8" class="hot"/>
<text x="789" y="282" font-family="Arial" font-size="18" text-anchor="middle">Z</text>
<rect x="828" y="250" width="38" height="52" rx="8" class="link"/>
<text x="847" y="282" font-family="Arial" font-size="18" text-anchor="middle">*</text>
<text x="440" y="330" class="small">front</text>
<text x="740" y="330" class="small">rear</text>
<rect x="80" y="640" width="820" height="42" rx="8" class="ok"/>
<text x="105" y="667" class="small">This SVG frame is generated by C++ program: 10_linked_stack_queue.cpp. HTML only loads generated step_XX.svg files.</text>
</svg>
