<svg xmlns="http://www.w3.org/2000/svg" width="1280" height="720" viewBox="0 0 1280 720">
<rect width="100%" height="100%" fill="#f7fbff"/>
<style>.title{font:700 26px Arial;fill:#111}.sub{font:16px Arial;fill:#222}.small{font:13px Arial;fill:#333}.tiny{font:11px Arial;fill:#333}.box{fill:#e8f4ff;stroke:#6aa1d8;stroke-width:1.4}.hot{fill:#ffe6e6;stroke:#d93025;stroke-width:2.5}.ok{fill:#e6f4ea;stroke:#188038;stroke-width:2}.note{fill:#fff7d6;stroke:#d9a300;stroke-width:1.5}.gray{fill:#eeeeee;stroke:#888}.node{fill:#dbeafe;stroke:#2b73bd;stroke-width:2}.data{fill:#fef3c7;stroke:#b7791f;stroke-width:1.5}.link{fill:#ecfdf5;stroke:#047857;stroke-width:1.5}.ptr{stroke:#4b5563;stroke-width:2.2;fill:none;marker-end:url(#arr)}.redptr{stroke:#dc2626;stroke-width:3;fill:none;marker-end:url(#arrRed)}.dash{stroke:#777;stroke-width:2;fill:none;stroke-dasharray:6 5;marker-end:url(#arr)}</style>
<defs><marker id="arr" markerWidth="10" markerHeight="10" refX="8" refY="3" orient="auto"><path d="M0,0 L0,6 L9,3 z" fill="#4b5563"/></marker><marker id="arrRed" markerWidth="10" markerHeight="10" refX="8" refY="3" orient="auto"><path d="M0,0 L0,6 L9,3 z" fill="#dc2626"/></marker></defs>
<rect x="28" y="22" width="1220" height="72" rx="14" fill="#e8f2ff" stroke="#4f8bd6" stroke-width="2"/>
<text x="54" y="58" class="title">Circular List Last Pointer</text>
<text x="54" y="82" class="sub">Step 5 / 8 - 由 C++ 程式輸出 step-by-step SVG 動畫</text>
<rect x="790" y="130" width="420" height="160" rx="8" class="box"/>
<text x="815" y="162" class="title">Step state table</text>
<text x="815" y="195" class="sub">Current step = 5</text>
<text x="815" y="225" class="small">Red = this step's active pointer/data change</text>
<text x="815" y="252" class="small">Blue/gray = existing structure or waiting nodes</text>
<rect x="790" y="315" width="420" height="190" rx="8" class="note"/>
<text x="815" y="348" class="title">Animation focus</text>
<text x="815" y="382" class="small">- last 指向尾節點</text>
<text x="815" y="406" class="small">- last-&gt;link 回到第一個節點</text>
<text x="815" y="430" class="small">- 用 last 可快速找到頭尾</text>
<text x="60" y="135" class="sub">Circular list: last-&gt;link points to the first node instead of NULL.</text>
<rect x="150" y="240" width="78" height="52" rx="8" class="data"/>
<text x="189" y="272" font-family="Arial" font-size="18" text-anchor="middle">A</text>
<rect x="228" y="240" width="38" height="52" rx="8" class="link"/>
<text x="247" y="272" font-family="Arial" font-size="18" text-anchor="middle">*</text>
<rect x="350" y="240" width="78" height="52" rx="8" class="data"/>
<text x="389" y="272" font-family="Arial" font-size="18" text-anchor="middle">B</text>
<rect x="428" y="240" width="38" height="52" rx="8" class="link"/>
<text x="447" y="272" font-family="Arial" font-size="18" text-anchor="middle">*</text>
<rect x="550" y="240" width="78" height="52" rx="8" class="data"/>
<text x="589" y="272" font-family="Arial" font-size="18" text-anchor="middle">C</text>
<rect x="628" y="240" width="38" height="52" rx="8" class="link"/>
<text x="647" y="272" font-family="Arial" font-size="18" text-anchor="middle">*</text>
<line x1="266" y1="266" x2="350" y2="266" class="ptr"/>
<line x1="466" y1="266" x2="550" y2="266" class="ptr"/>
<text x="610" y="210" class="sub">last</text>
<line x1="650" y1="220" x2="630" y2="240" class="redptr"/>
<line x1="666" y1="266" x2="150" y2="266" class="redptr"/>
<text x="120" y="430" class="small">使用 last 可以 O(1) 找到第一個節點：first = last-&gt;link，也可快速尾端插入。</text>
<rect x="80" y="640" width="820" height="42" rx="8" class="ok"/>
<text x="105" y="667" class="small">This SVG frame is generated by C++ program: 08_circular_list_last_pointer.cpp. HTML only loads generated step_XX.svg files.</text>
</svg>
