<svg xmlns="http://www.w3.org/2000/svg" width="1120" height="700" viewBox="0 0 1120 700">
<rect width="100%" height="100%" fill="white"/>
<style>.title{font:700 28px Arial;fill:#111}.sub{font:17px Arial;fill:#333}.small{font:13px Arial;fill:#333}.num{font:18px Arial;text-anchor:middle;dominant-baseline:middle}.box{fill:#E8F4FF;stroke:#333;stroke-width:1.5}.hot{fill:#F8CECC;stroke:#C00000;stroke-width:2}.ok{fill:#D5E8D4;stroke:#2E7D32;stroke-width:2}.note{fill:#FFF2CC;stroke:#555;stroke-width:1.5}.null{fill:#eee;stroke:#777;stroke-width:1}.edge{stroke:#333;stroke-width:2;fill:none}.red{stroke:red;stroke-width:3;fill:none}.green{stroke:#00A651;stroke-width:3;fill:none}.dash{stroke:#777;stroke-width:2;fill:none;stroke-dasharray:6 5}.ptr{stroke:#333;stroke-width:2;fill:none;marker-end:url(#arrow)}.rptr{stroke:red;stroke-width:2.5;fill:none;marker-end:url(#arrowRed)}</style>
<defs><marker id="arrow" markerWidth="10" markerHeight="10" refX="8" refY="3" orient="auto"><path d="M0,0 L0,6 L9,3 z" fill="#333"/></marker><marker id="arrowRed" markerWidth="10" markerHeight="10" refX="8" refY="3" orient="auto"><path d="M0,0 L0,6 L9,3 z" fill="red"/></marker></defs>
<text x="30" y="42" class="title">01 Tree Definition and Terminology</text>
<rect x="30" y="55" width="180" height="42" rx="8" class="note"/>
<text x="120" y="76" class="num">Step 4 / 10</text>
<text x="230" y="83" class="sub" text-anchor="start">parent and child relation</text>
<line x1="550" y1="144" x2="340" y2="206" class="edge"/>
<line x1="550" y1="144" x2="550" y2="206" class="edge"/>
<line x1="550" y1="144" x2="760" y2="206" class="edge"/>
<line x1="340" y1="254" x2="250" y2="316" class="red"/>
<line x1="340" y1="254" x2="430" y2="316" class="edge"/>
<line x1="550" y1="254" x2="550" y2="316" class="edge"/>
<line x1="760" y1="254" x2="690" y2="316" class="edge"/>
<line x1="760" y1="254" x2="830" y2="316" class="edge"/>
<line x1="250" y1="364" x2="200" y2="436" class="edge"/>
<line x1="250" y1="364" x2="310" y2="436" class="edge"/>
<line x1="690" y1="364" x2="690" y2="436" class="edge"/>
<circle cx="550" cy="120" r="24" class="box"/>
<text x="550" y="120" class="num">A</text>
<circle cx="340" cy="230" r="24" class="hot"/>
<text x="340" y="230" class="num">B</text>
<circle cx="550" cy="230" r="24" class="box"/>
<text x="550" y="230" class="num">C</text>
<circle cx="760" cy="230" r="24" class="box"/>
<text x="760" y="230" class="num">D</text>
<circle cx="250" cy="340" r="24" class="hot"/>
<text x="250" y="340" class="num">E</text>
<circle cx="430" cy="340" r="24" class="box"/>
<text x="430" y="340" class="num">F</text>
<circle cx="550" cy="340" r="24" class="box"/>
<text x="550" y="340" class="num">G</text>
<circle cx="690" cy="340" r="24" class="box"/>
<text x="690" y="340" class="num">H</text>
<circle cx="830" cy="340" r="24" class="box"/>
<text x="830" y="340" class="num">I</text>
<circle cx="200" cy="460" r="24" class="box"/>
<text x="200" y="460" class="num">K</text>
<circle cx="310" cy="460" r="24" class="box"/>
<text x="310" y="460" class="num">L</text>
<circle cx="690" cy="460" r="24" class="box"/>
<text x="690" y="460" class="num">M</text>
<rect x="70" y="600" width="900" height="55" rx="8" class="note"/>
<text x="520" y="627" class="num">Tree = one root + disjoint subtrees; every non-root has exactly one parent.</text>
</svg>
