<svg xmlns="http://www.w3.org/2000/svg" width="1280" height="720" viewBox="0 0 1280 720">
<rect width="100%" height="100%" fill="#f7fbff"/>
<style>.title{font:700 26px Arial;fill:#111}.sub{font:16px Arial;fill:#222}.small{font:13px Arial;fill:#333}.tiny{font:11px Arial;fill:#333}.box{fill:#e8f4ff;stroke:#6aa1d8;stroke-width:1.4}.hot{fill:#ffe6e6;stroke:#d93025;stroke-width:2.5}.ok{fill:#e6f4ea;stroke:#188038;stroke-width:2}.note{fill:#fff7d6;stroke:#d9a300;stroke-width:1.5}.gray{fill:#eeeeee;stroke:#888}.node{fill:#dbeafe;stroke:#2b73bd;stroke-width:2}.data{fill:#fef3c7;stroke:#b7791f;stroke-width:1.5}.link{fill:#ecfdf5;stroke:#047857;stroke-width:1.5}.ptr{stroke:#4b5563;stroke-width:2.2;fill:none;marker-end:url(#arr)}.redptr{stroke:#dc2626;stroke-width:3;fill:none;marker-end:url(#arrRed)}.dash{stroke:#777;stroke-width:2;fill:none;stroke-dasharray:6 5;marker-end:url(#arr)}</style>
<defs><marker id="arr" markerWidth="10" markerHeight="10" refX="8" refY="3" orient="auto"><path d="M0,0 L0,6 L9,3 z" fill="#4b5563"/></marker><marker id="arrRed" markerWidth="10" markerHeight="10" refX="8" refY="3" orient="auto"><path d="M0,0 L0,6 L9,3 z" fill="#dc2626"/></marker></defs>
<rect x="28" y="22" width="1220" height="72" rx="14" fill="#e8f2ff" stroke="#4f8bd6" stroke-width="2"/>
<text x="54" y="58" class="title">Sparse Matrix Orthogonal List</text>
<text x="54" y="82" class="sub">Step 7 / 8 - 由 C++ 程式輸出 step-by-step SVG 動畫</text>
<rect x="790" y="130" width="420" height="160" rx="8" class="box"/>
<text x="815" y="162" class="title">Step state table</text>
<text x="815" y="195" class="sub">Current step = 7</text>
<text x="815" y="225" class="small">Red = this step's active pointer/data change</text>
<text x="815" y="252" class="small">Blue/gray = existing structure or waiting nodes</text>
<rect x="790" y="315" width="420" height="190" rx="8" class="note"/>
<text x="815" y="348" class="title">Animation focus</text>
<text x="815" y="382" class="small">- 非零元素用節點表示</text>
<text x="815" y="406" class="small">- row link 串同列</text>
<text x="815" y="430" class="small">- col link 串同欄</text>
<text x="60" y="135" class="sub">Orthogonal list stores sparse matrix nonzero entries with row and column links.</text>
<rect x="100" y="190" width="50" height="40" rx="8" class="box"/>
<rect x="155" y="190" width="50" height="40" rx="8" class="box"/>
<rect x="210" y="190" width="50" height="40" rx="8" class="box"/>
<rect x="265" y="190" width="50" height="40" rx="8" class="box"/>
<rect x="100" y="235" width="50" height="40" rx="8" class="box"/>
<rect x="155" y="235" width="50" height="40" rx="8" class="box"/>
<rect x="210" y="235" width="50" height="40" rx="8" class="hot"/>
<text x="235" y="261" font-family="Arial" font-size="18" text-anchor="middle">7</text>
<rect x="265" y="235" width="50" height="40" rx="8" class="box"/>
<rect x="100" y="280" width="50" height="40" rx="8" class="box"/>
<rect x="155" y="280" width="50" height="40" rx="8" class="box"/>
<rect x="210" y="280" width="50" height="40" rx="8" class="box"/>
<rect x="265" y="280" width="50" height="40" rx="8" class="box"/>
<rect x="100" y="325" width="50" height="40" rx="8" class="hot"/>
<text x="125" y="351" font-family="Arial" font-size="18" text-anchor="middle">5</text>
<rect x="155" y="325" width="50" height="40" rx="8" class="box"/>
<rect x="210" y="325" width="50" height="40" rx="8" class="box"/>
<rect x="265" y="325" width="50" height="40" rx="8" class="box"/>
<text x="390" y="190" class="sub">row headers</text>
<rect x="400" y="210" width="80" height="42" rx="8" class="note"/>
<text x="440" y="237" font-family="Arial" font-size="18" text-anchor="middle">row0</text>
<rect x="400" y="270" width="80" height="42" rx="8" class="note"/>
<text x="440" y="297" font-family="Arial" font-size="18" text-anchor="middle">row1</text>
<rect x="400" y="330" width="80" height="42" rx="8" class="note"/>
<text x="440" y="357" font-family="Arial" font-size="18" text-anchor="middle">row2</text>
<rect x="400" y="390" width="80" height="42" rx="8" class="note"/>
<text x="440" y="417" font-family="Arial" font-size="18" text-anchor="middle">row3</text>
<text x="580" y="190" class="sub">nonzero nodes</text>
<rect x="590" y="245" width="90" height="52" rx="8" class="hot"/>
<text x="635" y="277" font-family="Arial" font-size="18" text-anchor="middle">(1,2,7)</text>
<rect x="590" y="360" width="90" height="52" rx="8" class="hot"/>
<text x="635" y="392" font-family="Arial" font-size="18" text-anchor="middle">(3,0,5)</text>
<line x1="480" y1="291" x2="590" y2="271" class="redptr"/>
<line x1="480" y1="399" x2="590" y2="386" class="redptr"/>
<text x="720" y="270" class="small">column links connect entries in same column</text>
<line x1="635" y1="360" x2="635" y2="297" class="redptr"/>
<rect x="80" y="640" width="820" height="42" rx="8" class="ok"/>
<text x="105" y="667" class="small">This SVG frame is generated by C++ program: 14_sparse_matrix_orthogonal_list.cpp. HTML only loads generated step_XX.svg files.</text>
</svg>
