<svg xmlns="http://www.w3.org/2000/svg" width="1120" height="700" viewBox="0 0 1120 700">
<rect width="100%" height="100%" fill="white"/>
<style>.title{font:700 28px Arial;fill:#111}.sub{font:17px Arial;fill:#333}.small{font:13px Arial;fill:#333}.num{font:18px Arial;text-anchor:middle;dominant-baseline:middle}.box{fill:#E8F4FF;stroke:#333;stroke-width:1.5}.hot{fill:#F8CECC;stroke:#C00000;stroke-width:2}.ok{fill:#D5E8D4;stroke:#2E7D32;stroke-width:2}.note{fill:#FFF2CC;stroke:#555;stroke-width:1.5}.null{fill:#eee;stroke:#777;stroke-width:1}.edge{stroke:#333;stroke-width:2;fill:none}.red{stroke:red;stroke-width:3;fill:none}.green{stroke:#00A651;stroke-width:3;fill:none}.dash{stroke:#777;stroke-width:2;fill:none;stroke-dasharray:6 5}.ptr{stroke:#333;stroke-width:2;fill:none;marker-end:url(#arrow)}.rptr{stroke:red;stroke-width:2.5;fill:none;marker-end:url(#arrowRed)}</style>
<defs><marker id="arrow" markerWidth="10" markerHeight="10" refX="8" refY="3" orient="auto"><path d="M0,0 L0,6 L9,3 z" fill="#333"/></marker><marker id="arrowRed" markerWidth="10" markerHeight="10" refX="8" refY="3" orient="auto"><path d="M0,0 L0,6 L9,3 z" fill="red"/></marker></defs>
<text x="30" y="42" class="title">15 SAT Postorder Evaluation Step by Step</text>
<rect x="30" y="55" width="180" height="42" rx="8" class="note"/>
<text x="120" y="76" class="num">Step 6 / 12</text>
<text x="230" y="83" class="sub" text-anchor="start">evaluate NOT x3</text>
<line x1="550" y1="114" x2="380" y2="176" class="edge"/>
<line x1="550" y1="114" x2="730" y2="176" class="edge"/>
<line x1="380" y1="224" x2="290" y2="296" class="edge"/>
<line x1="380" y1="224" x2="470" y2="296" class="edge"/>
<line x1="470" y1="344" x2="470" y2="416" class="edge"/>
<line x1="730" y1="224" x2="650" y2="296" class="edge"/>
<line x1="730" y1="224" x2="850" y2="296" class="edge"/>
<line x1="650" y1="344" x2="600" y2="416" class="edge"/>
<line x1="650" y1="344" x2="720" y2="416" class="edge"/>
<line x1="600" y1="464" x2="600" y2="536" class="edge"/>
<line x1="850" y1="344" x2="850" y2="416" class="edge"/>
<circle cx="550" cy="90" r="24" class="box"/>
<text x="550" y="90" class="num">OR</text>
<circle cx="380" cy="200" r="24" class="box"/>
<text x="380" y="200" class="num">AND</text>
<circle cx="730" cy="200" r="24" class="box"/>
<text x="730" y="200" class="num">OR</text>
<circle cx="290" cy="320" r="24" class="box"/>
<text x="290" y="320" class="num">x1</text>
<circle cx="470" cy="320" r="24" class="box"/>
<text x="470" y="320" class="num">NOT</text>
<circle cx="650" cy="320" r="24" class="box"/>
<text x="650" y="320" class="num">AND</text>
<circle cx="850" cy="320" r="24" class="hot"/>
<text x="850" y="320" class="num">NOT</text>
<circle cx="470" cy="440" r="24" class="box"/>
<text x="470" y="440" class="num">x2</text>
<circle cx="600" cy="440" r="24" class="box"/>
<text x="600" y="440" class="num">NOT</text>
<circle cx="720" cy="440" r="24" class="box"/>
<text x="720" y="440" class="num">x3</text>
<circle cx="600" cy="560" r="24" class="box"/>
<text x="600" y="560" class="num">x1</text>
<circle cx="850" cy="440" r="24" class="hot"/>
<text x="850" y="440" class="num">x3</text>
<rect x="60" y="610" width="960" height="45" rx="8" class="note"/>
<text x="540" y="632" class="num">Evaluation order is postorder: evaluate children before applying AND / OR / NOT.</text>
</svg>
