<svg xmlns="http://www.w3.org/2000/svg" width="1280" height="720" viewBox="0 0 1280 720">
<rect width="100%" height="100%" fill="#f7fbff"/>
<style>.title{font:700 26px Arial;fill:#111}.sub{font:16px Arial;fill:#222}.small{font:13px Arial;fill:#333}.tiny{font:11px Arial;fill:#333}.box{fill:#e8f4ff;stroke:#6aa1d8;stroke-width:1.4}.hot{fill:#ffe6e6;stroke:#d93025;stroke-width:2.5}.ok{fill:#e6f4ea;stroke:#188038;stroke-width:2}.note{fill:#fff7d6;stroke:#d9a300;stroke-width:1.5}.gray{fill:#eeeeee;stroke:#888}.node{fill:#dbeafe;stroke:#2b73bd;stroke-width:2}.data{fill:#fef3c7;stroke:#b7791f;stroke-width:1.5}.link{fill:#ecfdf5;stroke:#047857;stroke-width:1.5}.ptr{stroke:#4b5563;stroke-width:2.2;fill:none;marker-end:url(#arr)}.redptr{stroke:#dc2626;stroke-width:3;fill:none;marker-end:url(#arrRed)}.dash{stroke:#777;stroke-width:2;fill:none;stroke-dasharray:6 5;marker-end:url(#arr)}</style>
<defs><marker id="arr" markerWidth="10" markerHeight="10" refX="8" refY="3" orient="auto"><path d="M0,0 L0,6 L9,3 z" fill="#4b5563"/></marker><marker id="arrRed" markerWidth="10" markerHeight="10" refX="8" refY="3" orient="auto"><path d="M0,0 L0,6 L9,3 z" fill="#dc2626"/></marker></defs>
<rect x="28" y="22" width="1220" height="72" rx="14" fill="#e8f2ff" stroke="#4f8bd6" stroke-width="2"/>
<text x="54" y="58" class="title">Polynomial Addition</text>
<text x="54" y="82" class="sub">Step 6 / 8 - 由 C++ 程式輸出 step-by-step SVG 動畫</text>
<rect x="790" y="130" width="420" height="160" rx="8" class="box"/>
<text x="815" y="162" class="title">Step state table</text>
<text x="815" y="195" class="sub">Current step = 6</text>
<text x="815" y="225" class="small">Red = this step's active pointer/data change</text>
<text x="815" y="252" class="small">Blue/gray = existing structure or waiting nodes</text>
<rect x="790" y="315" width="420" height="190" rx="8" class="note"/>
<text x="815" y="348" class="title">Animation focus</text>
<text x="815" y="382" class="small">- 比較兩多項式指標</text>
<text x="815" y="406" class="small">- 相同 exponent 相加</text>
<text x="815" y="430" class="small">- 不同 exponent 複製較大項</text>
<text x="60" y="135" class="sub">Polynomial addition walks two ordered chains and compares exponents.</text>
<text x="90" y="190" class="sub">A(x)</text>
<rect x="140" y="210" width="70" height="48" rx="8" class="data"/>
<text x="175" y="240" font-family="Arial" font-size="18" text-anchor="middle">3</text>
<rect x="210" y="210" width="70" height="48" rx="8" class="box"/>
<text x="245" y="240" font-family="Arial" font-size="18" text-anchor="middle">5</text>
<rect x="320" y="210" width="70" height="48" rx="8" class="data"/>
<text x="355" y="240" font-family="Arial" font-size="18" text-anchor="middle">2</text>
<rect x="390" y="210" width="70" height="48" rx="8" class="box"/>
<text x="425" y="240" font-family="Arial" font-size="18" text-anchor="middle">2</text>
<line x1="280" y1="234" x2="320" y2="234" class="ptr"/>
<text x="90" y="300" class="sub">B(x)</text>
<rect x="140" y="320" width="70" height="48" rx="8" class="data"/>
<text x="175" y="350" font-family="Arial" font-size="18" text-anchor="middle">4</text>
<rect x="210" y="320" width="70" height="48" rx="8" class="box"/>
<text x="245" y="350" font-family="Arial" font-size="18" text-anchor="middle">5</text>
<rect x="320" y="320" width="70" height="48" rx="8" class="data"/>
<text x="355" y="350" font-family="Arial" font-size="18" text-anchor="middle">1</text>
<rect x="390" y="320" width="70" height="48" rx="8" class="box"/>
<text x="425" y="350" font-family="Arial" font-size="18" text-anchor="middle">1</text>
<line x1="280" y1="344" x2="320" y2="344" class="ptr"/>
<text x="520" y="250" class="sub">Same exponent 5: 3 + 4 = 7</text>
<rect x="620" y="300" width="70" height="48" rx="8" class="hot"/>
<text x="655" y="330" font-family="Arial" font-size="18" text-anchor="middle">7</text>
<rect x="690" y="300" width="70" height="48" rx="8" class="hot"/>
<text x="725" y="330" font-family="Arial" font-size="18" text-anchor="middle">5</text>
<text x="520" y="390" class="small">Then copy larger/smaller remaining exponent terms.</text>
<rect x="780" y="300" width="70" height="48" rx="8" class="data"/>
<text x="815" y="330" font-family="Arial" font-size="18" text-anchor="middle">2</text>
<rect x="850" y="300" width="70" height="48" rx="8" class="box"/>
<text x="885" y="330" font-family="Arial" font-size="18" text-anchor="middle">2</text>
<rect x="80" y="640" width="820" height="42" rx="8" class="ok"/>
<text x="105" y="667" class="small">This SVG frame is generated by C++ program: 13_polynomial_addition.cpp. HTML only loads generated step_XX.svg files.</text>
</svg>
