<svg xmlns="http://www.w3.org/2000/svg" width="1120" height="700" viewBox="0 0 1120 700">
<rect width="100%" height="100%" fill="white"/>
<style>.title{font:700 28px Arial;fill:#111}.sub{font:17px Arial;fill:#333}.small{font:13px Arial;fill:#333}.num{font:18px Arial;text-anchor:middle;dominant-baseline:middle}.box{fill:#E8F4FF;stroke:#333;stroke-width:1.5}.hot{fill:#F8CECC;stroke:#C00000;stroke-width:2}.ok{fill:#D5E8D4;stroke:#2E7D32;stroke-width:2}.note{fill:#FFF2CC;stroke:#555;stroke-width:1.5}.null{fill:#eee;stroke:#777;stroke-width:1}.edge{stroke:#333;stroke-width:2;fill:none}.red{stroke:red;stroke-width:3;fill:none}.green{stroke:#00A651;stroke-width:3;fill:none}.dash{stroke:#777;stroke-width:2;fill:none;stroke-dasharray:6 5}.ptr{stroke:#333;stroke-width:2;fill:none;marker-end:url(#arrow)}.rptr{stroke:red;stroke-width:2.5;fill:none;marker-end:url(#arrowRed)}</style>
<defs><marker id="arrow" markerWidth="10" markerHeight="10" refX="8" refY="3" orient="auto"><path d="M0,0 L0,6 L9,3 z" fill="#333"/></marker><marker id="arrowRed" markerWidth="10" markerHeight="10" refX="8" refY="3" orient="auto"><path d="M0,0 L0,6 L9,3 z" fill="red"/></marker></defs>
<text x="30" y="42" class="title">11 Expression Tree Step by Step</text>
<rect x="30" y="55" width="180" height="42" rx="8" class="note"/>
<text x="120" y="76" class="num">Step 3 / 11</text>
<text x="230" y="83" class="sub" text-anchor="start">divide A by B</text>
<line x1="550" y1="134" x2="430" y2="196" class="edge"/>
<line x1="550" y1="134" x2="710" y2="196" class="edge"/>
<line x1="430" y1="244" x2="320" y2="306" class="edge"/>
<line x1="430" y1="244" x2="500" y2="306" class="edge"/>
<line x1="320" y1="354" x2="240" y2="416" class="edge"/>
<line x1="320" y1="354" x2="400" y2="416" class="edge"/>
<line x1="240" y1="464" x2="180" y2="526" class="edge"/>
<line x1="240" y1="464" x2="300" y2="526" class="edge"/>
<circle cx="550" cy="110" r="24" class="box"/>
<text x="550" y="110" class="num">+</text>
<circle cx="430" cy="220" r="24" class="box"/>
<text x="430" y="220" class="num">*</text>
<circle cx="710" cy="220" r="24" class="box"/>
<text x="710" y="220" class="num">E</text>
<circle cx="320" cy="330" r="24" class="box"/>
<text x="320" y="330" class="num">*</text>
<circle cx="500" cy="330" r="24" class="box"/>
<text x="500" y="330" class="num">D</text>
<circle cx="240" cy="440" r="24" class="hot"/>
<text x="240" y="440" class="num">/</text>
<circle cx="400" cy="440" r="24" class="box"/>
<text x="400" y="440" class="num">C</text>
<circle cx="180" cy="550" r="24" class="hot"/>
<text x="180" y="550" class="num">A</text>
<circle cx="300" cy="550" r="24" class="hot"/>
<text x="300" y="550" class="num">B</text>
<rect x="700" y="420" width="330" height="50" rx="8" class="note"/>
<text x="865" y="445" class="num">Infix: A/B*C*D+E</text>
<rect x="700" y="490" width="330" height="50" rx="8" class="note"/>
<text x="865" y="515" class="num">Postfix: A B / C * D * E +</text>
</svg>
