<svg xmlns="http://www.w3.org/2000/svg" width="1100" height="680" viewBox="0 0 1100 680">
<defs><marker id="arrow" viewBox="0 0 10 10" refX="9" refY="5" markerWidth="7" markerHeight="7" orient="auto"><path d="M0,0 L10,5 L0,10 z" fill="#34495e"/></marker></defs>
<rect width="1100" height="680" fill="#fbfdff"/><text x="42" y="48" font-size="30" font-family="Microsoft JhengHei,Arial" font-weight="700" fill="#1f3763">All-Pairs Shortest Paths</text><text x="42" y="80" font-size="18" font-family="Microsoft JhengHei,Arial" fill="#445">Floyd / AllLengths 動態規劃</text><text x="60" y="120" font-size="22" font-family="Microsoft JhengHei,Arial" font-weight="700" fill="#d35400" text-anchor="start">Frame 7: 輸出距離矩陣</text><rect x="70" y="130" width="400" height="400" rx="10" fill="#fff" stroke="#789" stroke-width="2"/><text x="100" y="170" font-size="22" font-family="Microsoft JhengHei,Arial" font-weight="700" fill="#1f3763" text-anchor="start">矩陣逐步更新</text><rect x="105" y="210" width="58" height="58" rx="10" fill="#eef" stroke="#789" stroke-width="2"/><text x="134" y="245" font-size="14" font-family="Microsoft JhengHei,Arial" font-weight="700" fill="#111" text-anchor="middle">A[-1]</text><rect x="177" y="210" width="58" height="58" rx="10" fill="#eef" stroke="#789" stroke-width="2"/><text x="206" y="245" font-size="14" font-family="Microsoft JhengHei,Arial" font-weight="700" fill="#111" text-anchor="middle">A[0]</text><rect x="249" y="210" width="58" height="58" rx="10" fill="#eef" stroke="#789" stroke-width="2"/><text x="278" y="245" font-size="14" font-family="Microsoft JhengHei,Arial" font-weight="700" fill="#111" text-anchor="middle">A[1]</text><rect x="321" y="210" width="58" height="58" rx="10" fill="#eef" stroke="#789" stroke-width="2"/><text x="350" y="245" font-size="14" font-family="Microsoft JhengHei,Arial" font-weight="700" fill="#111" text-anchor="middle">A[2]</text><rect x="393" y="210" width="58" height="58" rx="10" fill="#ffe2d5" stroke="#789" stroke-width="2"/><text x="422" y="245" font-size="14" font-family="Microsoft JhengHei,Arial" font-weight="700" fill="#111" text-anchor="middle">Final</text><text x="95" y="330" font-size="18" font-family="Microsoft JhengHei,Arial" font-weight="700" fill="#c0392b" text-anchor="start">Floyd: a[i][j] = min(a[i][j], a[i][k]+a[k][j])</text><line x1="640" y1="340" x2="790" y2="210" stroke="#d35400" stroke-width="4" stroke-linecap="round" marker-end="url(#arrow)"/><circle cx="715.0" cy="275.0" r="16" fill="#fff" stroke="#ccc"/><text x="715.0" y="281.0" font-size="15" font-family="Arial" text-anchor="middle">a[i][k]</text><line x1="790" y1="210" x2="940" y2="340" stroke="#d35400" stroke-width="4" stroke-linecap="round" marker-end="url(#arrow)"/><circle cx="865.0" cy="275.0" r="16" fill="#fff" stroke="#ccc"/><text x="865.0" y="281.0" font-size="15" font-family="Arial" text-anchor="middle">a[k][j]</text><line x1="640" y1="340" x2="940" y2="340" stroke="#999" stroke-width="4" stroke-linecap="round" marker-end="url(#arrow)"/><circle cx="790.0" cy="340.0" r="16" fill="#fff" stroke="#ccc"/><text x="790.0" y="346.0" font-size="15" font-family="Arial" text-anchor="middle">old</text><circle cx="640" cy="340" r="28" fill="#fff0bf" stroke="#1f6fbf" stroke-width="3"/><text x="640" y="347" font-size="21" font-family="Arial" font-weight="700" text-anchor="middle">i</text><circle cx="790" cy="210" r="28" fill="#fff0bf" stroke="#1f6fbf" stroke-width="3"/><text x="790" y="217" font-size="21" font-family="Arial" font-weight="700" text-anchor="middle">k</text><circle cx="940" cy="340" r="28" fill="#fff0bf" stroke="#1f6fbf" stroke-width="3"/><text x="940" y="347" font-size="21" font-family="Arial" font-weight="700" text-anchor="middle">j</text></svg>