<svg xmlns="http://www.w3.org/2000/svg" width="1100" height="680" viewBox="0 0 1100 680">
<defs><marker id="arrow" viewBox="0 0 10 10" refX="9" refY="5" markerWidth="7" markerHeight="7" orient="auto"><path d="M0,0 L10,5 L0,10 z" fill="#34495e"/></marker></defs>
<rect width="1100" height="680" fill="#fbfdff"/><text x="42" y="48" font-size="30" font-family="Microsoft JhengHei,Arial" font-weight="700" fill="#1f3763">AOV Network</text><text x="42" y="80" font-size="18" font-family="Microsoft JhengHei,Arial" fill="#445">Activity-on-Vertex 與 prerequisite precedence</text><text x="60" y="120" font-size="22" font-family="Microsoft JhengHei,Arial" font-weight="700" fill="#d35400" text-anchor="start">Frame 6: 確認不可有 cycle</text><line x1="120" y1="200" x2="310" y2="300" stroke="#789" stroke-width="3" stroke-linecap="round" marker-end="url(#arrow)"/><line x1="120" y1="430" x2="310" y2="300" stroke="#789" stroke-width="3" stroke-linecap="round" marker-end="url(#arrow)"/><line x1="310" y1="300" x2="530" y2="380" stroke="#789" stroke-width="3" stroke-linecap="round" marker-end="url(#arrow)"/><line x1="310" y1="300" x2="530" y2="220" stroke="#789" stroke-width="3" stroke-linecap="round" marker-end="url(#arrow)"/><line x1="310" y1="500" x2="530" y2="380" stroke="#789" stroke-width="3" stroke-linecap="round" marker-end="url(#arrow)"/><line x1="530" y1="380" x2="760" y2="170" stroke="#789" stroke-width="3" stroke-linecap="round" marker-end="url(#arrow)"/><line x1="530" y1="220" x2="760" y2="170" stroke="#789" stroke-width="3" stroke-linecap="round" marker-end="url(#arrow)"/><line x1="530" y1="380" x2="760" y2="360" stroke="#789" stroke-width="3" stroke-linecap="round" marker-end="url(#arrow)"/><line x1="760" y1="360" x2="960" y2="360" stroke="#789" stroke-width="3" stroke-linecap="round" marker-end="url(#arrow)"/><circle cx="120" cy="200" r="28" fill="#e9f2ff" stroke="#1f6fbf" stroke-width="3"/><text x="120" y="207" font-size="21" font-family="Arial" font-weight="700" text-anchor="middle">C1</text><circle cx="120" cy="430" r="28" fill="#e9f2ff" stroke="#1f6fbf" stroke-width="3"/><text x="120" y="437" font-size="21" font-family="Arial" font-weight="700" text-anchor="middle">C2</text><circle cx="310" cy="300" r="28" fill="#e9f2ff" stroke="#1f6fbf" stroke-width="3"/><text x="310" y="307" font-size="21" font-family="Arial" font-weight="700" text-anchor="middle">C3</text><circle cx="310" cy="500" r="28" fill="#e9f2ff" stroke="#1f6fbf" stroke-width="3"/><text x="310" y="507" font-size="21" font-family="Arial" font-weight="700" text-anchor="middle">C6</text><circle cx="530" cy="380" r="28" fill="#e9f2ff" stroke="#1f6fbf" stroke-width="3"/><text x="530" y="387" font-size="21" font-family="Arial" font-weight="700" text-anchor="middle">C7</text><circle cx="530" cy="220" r="28" fill="#e9f2ff" stroke="#1f6fbf" stroke-width="3"/><text x="530" y="227" font-size="21" font-family="Arial" font-weight="700" text-anchor="middle">C8</text><circle cx="760" cy="170" r="28" fill="#e9f2ff" stroke="#1f6fbf" stroke-width="3"/><text x="760" y="177" font-size="21" font-family="Arial" font-weight="700" text-anchor="middle">C9</text><circle cx="760" cy="360" r="28" fill="#e9f2ff" stroke="#1f6fbf" stroke-width="3"/><text x="760" y="367" font-size="21" font-family="Arial" font-weight="700" text-anchor="middle">C10</text><circle cx="960" cy="360" r="28" fill="#e9f2ff" stroke="#1f6fbf" stroke-width="3"/><text x="960" y="367" font-size="21" font-family="Arial" font-weight="700" text-anchor="middle">C11</text><rect x="70" y="560" width="960" height="70" rx="10" fill="#fffaf2" stroke="#d9a" stroke-width="2"/><text x="95" y="605" font-size="20" font-family="Microsoft JhengHei,Arial" font-weight="700" fill="#c0392b" text-anchor="start">AOV：vertex 是 activity，edge 是「必須先完成」的 precedence relation</text></svg>