<svg xmlns="http://www.w3.org/2000/svg" width="1100" height="680" viewBox="0 0 1100 680">
<defs><marker id="arrow" viewBox="0 0 10 10" refX="9" refY="5" markerWidth="7" markerHeight="7" orient="auto"><path d="M0,0 L10,5 L0,10 z" fill="#34495e"/></marker></defs>
<rect width="1100" height="680" fill="#fbfdff"/><text x="42" y="48" font-size="30" font-family="Microsoft JhengHei,Arial" font-weight="700" fill="#1f3763">Dijkstra Algorithm</text><text x="42" y="80" font-size="18" font-family="Microsoft JhengHei,Arial" fill="#445">非負權重的 single source shortest path</text><text x="60" y="120" font-size="22" font-family="Microsoft JhengHei,Arial" font-weight="700" fill="#d35400" text-anchor="start">Frame 7: 輸出 shortest path tree</text><line x1="160" y1="330" x2="330" y2="190" stroke="#9aa" stroke-width="3" stroke-linecap="round" marker-end="url(#arrow)"/><circle cx="245.0" cy="260.0" r="16" fill="#fff" stroke="#ccc"/><text x="245.0" y="266.0" font-size="15" font-family="Arial" text-anchor="middle">50</text><line x1="160" y1="330" x2="330" y2="460" stroke="#d35400" stroke-width="5" stroke-linecap="round" marker-end="url(#arrow)"/><circle cx="245.0" cy="395.0" r="16" fill="#fff" stroke="#ccc"/><text x="245.0" y="401.0" font-size="15" font-family="Arial" text-anchor="middle">10</text><line x1="330" y1="460" x2="540" y2="440" stroke="#d35400" stroke-width="5" stroke-linecap="round" marker-end="url(#arrow)"/><circle cx="435.0" cy="450.0" r="16" fill="#fff" stroke="#ccc"/><text x="435.0" y="456.0" font-size="15" font-family="Arial" text-anchor="middle">15</text><line x1="540" y1="440" x2="330" y2="190" stroke="#9aa" stroke-width="3" stroke-linecap="round" marker-end="url(#arrow)"/><circle cx="435.0" cy="315.0" r="16" fill="#fff" stroke="#ccc"/><text x="435.0" y="321.0" font-size="15" font-family="Arial" text-anchor="middle">20</text><line x1="330" y1="190" x2="520" y2="190" stroke="#9aa" stroke-width="3" stroke-linecap="round" marker-end="url(#arrow)"/><circle cx="425.0" cy="190.0" r="16" fill="#fff" stroke="#ccc"/><text x="425.0" y="196.0" font-size="15" font-family="Arial" text-anchor="middle">45</text><line x1="520" y1="190" x2="760" y2="330" stroke="#9aa" stroke-width="3" stroke-linecap="round" marker-end="url(#arrow)"/><circle cx="640.0" cy="260.0" r="16" fill="#fff" stroke="#ccc"/><text x="640.0" y="266.0" font-size="15" font-family="Arial" text-anchor="middle">30</text><line x1="540" y1="440" x2="760" y2="330" stroke="#d35400" stroke-width="5" stroke-linecap="round" marker-end="url(#arrow)"/><circle cx="650.0" cy="385.0" r="16" fill="#fff" stroke="#ccc"/><text x="650.0" y="391.0" font-size="15" font-family="Arial" text-anchor="middle">20</text><line x1="540" y1="440" x2="520" y2="190" stroke="#9aa" stroke-width="3" stroke-linecap="round" marker-end="url(#arrow)"/><circle cx="530.0" cy="315.0" r="16" fill="#fff" stroke="#ccc"/><text x="530.0" y="321.0" font-size="15" font-family="Arial" text-anchor="middle">35</text><circle cx="160" cy="330" r="28" fill="#ffd6c9" stroke="#d35400" stroke-width="3"/><text x="160" y="337" font-size="21" font-family="Arial" font-weight="700" text-anchor="middle">0</text><text x="194" y="302" font-size="15" font-family="Microsoft JhengHei,Arial" font-weight="700" fill="#c0392b" text-anchor="start">δ=0</text><circle cx="330" cy="190" r="28" fill="#e9f2ff" stroke="#1f6fbf" stroke-width="3"/><text x="330" y="197" font-size="21" font-family="Arial" font-weight="700" text-anchor="middle">1</text><text x="364" y="162" font-size="15" font-family="Microsoft JhengHei,Arial" font-weight="700" fill="#c0392b" text-anchor="start">δ=45</text><circle cx="520" cy="190" r="28" fill="#e9f2ff" stroke="#1f6fbf" stroke-width="3"/><text x="520" y="197" font-size="21" font-family="Arial" font-weight="700" text-anchor="middle">2</text><text x="554" y="162" font-size="15" font-family="Microsoft JhengHei,Arial" font-weight="700" fill="#c0392b" text-anchor="start">δ=45</text><circle cx="330" cy="460" r="28" fill="#ffd6c9" stroke="#d35400" stroke-width="3"/><text x="330" y="467" font-size="21" font-family="Arial" font-weight="700" text-anchor="middle">3</text><text x="364" y="432" font-size="15" font-family="Microsoft JhengHei,Arial" font-weight="700" fill="#c0392b" text-anchor="start">δ=10</text><circle cx="540" cy="440" r="28" fill="#ffd6c9" stroke="#d35400" stroke-width="3"/><text x="540" y="447" font-size="21" font-family="Arial" font-weight="700" text-anchor="middle">4</text><text x="574" y="412" font-size="15" font-family="Microsoft JhengHei,Arial" font-weight="700" fill="#c0392b" text-anchor="start">δ=25</text><circle cx="760" cy="330" r="28" fill="#ffd6c9" stroke="#d35400" stroke-width="3"/><text x="760" y="337" font-size="21" font-family="Arial" font-weight="700" text-anchor="middle">5</text><text x="794" y="302" font-size="15" font-family="Microsoft JhengHei,Arial" font-weight="700" fill="#c0392b" text-anchor="start">δ=45</text><rect x="820" y="150" width="230" height="310" rx="10" fill="#fffaf2" stroke="#d9a" stroke-width="2"/><text x="845" y="190" font-size="22" font-family="Microsoft JhengHei,Arial" font-weight="700" fill="#1f3763" text-anchor="start">重點</text><text x="845" y="235" font-size="17" font-family="Microsoft JhengHei,Arial" font-weight="400" fill="#222" text-anchor="start">非負權重才能用 Dijkstra</text><text x="845" y="275" font-size="17" font-family="Microsoft JhengHei,Arial" font-weight="400" fill="#222" text-anchor="start">Relax: dist[v] 更新</text><text x="845" y="315" font-size="17" font-family="Microsoft JhengHei,Arial" font-weight="400" fill="#222" text-anchor="start">ExtractMin: 貪婪選擇</text><text x="845" y="355" font-size="17" font-family="Microsoft JhengHei,Arial" font-weight="400" fill="#222" text-anchor="start">結果是 shortest path tree</text></svg>