<svg xmlns="http://www.w3.org/2000/svg" width="1120" height="700" viewBox="0 0 1120 700">
<rect width="100%" height="100%" fill="white"/>
<style>.title{font:700 28px Arial;fill:#111}.sub{font:17px Arial;fill:#333}.small{font:13px Arial;fill:#333}.num{font:18px Arial;text-anchor:middle;dominant-baseline:middle}.box{fill:#E8F4FF;stroke:#333;stroke-width:1.5}.hot{fill:#F8CECC;stroke:#C00000;stroke-width:2}.ok{fill:#D5E8D4;stroke:#2E7D32;stroke-width:2}.note{fill:#FFF2CC;stroke:#555;stroke-width:1.5}.null{fill:#eee;stroke:#777;stroke-width:1}.edge{stroke:#333;stroke-width:2;fill:none}.red{stroke:red;stroke-width:3;fill:none}.green{stroke:#00A651;stroke-width:3;fill:none}.dash{stroke:#777;stroke-width:2;fill:none;stroke-dasharray:6 5}.ptr{stroke:#333;stroke-width:2;fill:none;marker-end:url(#arrow)}.rptr{stroke:red;stroke-width:2.5;fill:none;marker-end:url(#arrowRed)}</style>
<defs><marker id="arrow" markerWidth="10" markerHeight="10" refX="8" refY="3" orient="auto"><path d="M0,0 L0,6 L9,3 z" fill="#333"/></marker><marker id="arrowRed" markerWidth="10" markerHeight="10" refX="8" refY="3" orient="auto"><path d="M0,0 L0,6 L9,3 z" fill="red"/></marker></defs>
<text x="30" y="42" class="title">03 k-ary Memory Waste Step by Step</text>
<rect x="30" y="55" width="180" height="42" rx="8" class="note"/>
<text x="120" y="76" class="num">Step 3 / 8</text>
<text x="230" y="83" class="sub" text-anchor="start">only two child fields used</text>
<text x="70" y="130" class="sub" text-anchor="start">A fixed k-ary node layout reserves every child slot.</text>
<rect x="130" y="190" width="150" height="70" rx="8" class="ok"/>
<text x="205" y="225" class="num">used child</text>
<rect x="295" y="190" width="150" height="70" rx="8" class="box"/>
<text x="370" y="225" class="num">used child</text>
<rect x="460" y="190" width="150" height="70" rx="8" class="box"/>
<text x="535" y="225" class="num">NULL</text>
<rect x="625" y="190" width="150" height="70" rx="8" class="box"/>
<text x="700" y="225" class="num">NULL</text>
<rect x="790" y="190" width="150" height="70" rx="8" class="box"/>
<text x="865" y="225" class="num">NULL</text>
<rect x="90" y="360" width="880" height="70" rx="8" class="note"/>
<text x="530" y="395" class="num">Unused pointer fields waste memory.</text>
</svg>
