<svg xmlns="http://www.w3.org/2000/svg" width="1100" height="680" viewBox="0 0 1100 680">
<defs><marker id="arrow" viewBox="0 0 10 10" refX="9" refY="5" markerWidth="7" markerHeight="7" orient="auto"><path d="M0,0 L10,5 L0,10 z" fill="#34495e"/></marker></defs>
<rect width="1100" height="680" fill="#fbfdff"/><text x="42" y="48" font-size="30" font-family="Microsoft JhengHei,Arial" font-weight="700" fill="#1f3763">Static Timing Analysis</text><text x="42" y="80" font-size="18" font-family="Microsoft JhengHei,Arial" fill="#445">用 DAG 計算 arrival / required / slack</text><text x="60" y="120" font-size="22" font-family="Microsoft JhengHei,Arial" font-weight="700" fill="#d35400" text-anchor="start">Frame 5: 反向傳 required</text><line x1="120" y1="220" x2="520" y2="220" stroke="#789" stroke-width="3" stroke-linecap="round" marker-end="url(#arrow)"/><line x1="310" y1="220" x2="520" y2="220" stroke="#789" stroke-width="3" stroke-linecap="round" marker-end="url(#arrow)"/><line x1="310" y1="220" x2="520" y2="440" stroke="#789" stroke-width="3" stroke-linecap="round" marker-end="url(#arrow)"/><line x1="310" y1="440" x2="520" y2="440" stroke="#789" stroke-width="3" stroke-linecap="round" marker-end="url(#arrow)"/><line x1="120" y1="440" x2="720" y2="330" stroke="#789" stroke-width="3" stroke-linecap="round" marker-end="url(#arrow)"/><line x1="520" y1="440" x2="720" y2="330" stroke="#789" stroke-width="3" stroke-linecap="round" marker-end="url(#arrow)"/><line x1="520" y1="440" x2="720" y2="520" stroke="#789" stroke-width="3" stroke-linecap="round" marker-end="url(#arrow)"/><line x1="310" y1="560" x2="720" y2="520" stroke="#789" stroke-width="3" stroke-linecap="round" marker-end="url(#arrow)"/><line x1="520" y1="220" x2="940" y2="260" stroke="#789" stroke-width="3" stroke-linecap="round" marker-end="url(#arrow)"/><line x1="720" y1="330" x2="940" y2="260" stroke="#789" stroke-width="3" stroke-linecap="round" marker-end="url(#arrow)"/><line x1="720" y1="330" x2="940" y2="470" stroke="#789" stroke-width="3" stroke-linecap="round" marker-end="url(#arrow)"/><line x1="720" y1="520" x2="940" y2="470" stroke="#789" stroke-width="3" stroke-linecap="round" marker-end="url(#arrow)"/><circle cx="120" cy="220" r="28" fill="#e9f2ff" stroke="#1f6fbf" stroke-width="3"/><text x="120" y="227" font-size="21" font-family="Arial" font-weight="700" text-anchor="middle">1</text><circle cx="120" cy="440" r="28" fill="#e9f2ff" stroke="#1f6fbf" stroke-width="3"/><text x="120" y="447" font-size="21" font-family="Arial" font-weight="700" text-anchor="middle">2</text><circle cx="310" cy="220" r="28" fill="#e9f2ff" stroke="#1f6fbf" stroke-width="3"/><text x="310" y="227" font-size="21" font-family="Arial" font-weight="700" text-anchor="middle">3</text><circle cx="310" cy="440" r="28" fill="#e9f2ff" stroke="#1f6fbf" stroke-width="3"/><text x="310" y="447" font-size="21" font-family="Arial" font-weight="700" text-anchor="middle">6</text><circle cx="310" cy="560" r="28" fill="#e9f2ff" stroke="#1f6fbf" stroke-width="3"/><text x="310" y="567" font-size="21" font-family="Arial" font-weight="700" text-anchor="middle">7</text><circle cx="520" cy="220" r="28" fill="#e9f2ff" stroke="#1f6fbf" stroke-width="3"/><text x="520" y="227" font-size="21" font-family="Arial" font-weight="700" text-anchor="middle">10</text><circle cx="520" cy="440" r="28" fill="#e9f2ff" stroke="#1f6fbf" stroke-width="3"/><text x="520" y="447" font-size="21" font-family="Arial" font-weight="700" text-anchor="middle">11</text><circle cx="720" cy="330" r="28" fill="#e9f2ff" stroke="#1f6fbf" stroke-width="3"/><text x="720" y="337" font-size="21" font-family="Arial" font-weight="700" text-anchor="middle">16</text><circle cx="720" cy="520" r="28" fill="#e9f2ff" stroke="#1f6fbf" stroke-width="3"/><text x="720" y="527" font-size="21" font-family="Arial" font-weight="700" text-anchor="middle">19</text><circle cx="940" cy="260" r="28" fill="#e9f2ff" stroke="#1f6fbf" stroke-width="3"/><text x="940" y="267" font-size="21" font-family="Arial" font-weight="700" text-anchor="middle">22</text><circle cx="940" cy="470" r="28" fill="#e9f2ff" stroke="#1f6fbf" stroke-width="3"/><text x="940" y="477" font-size="21" font-family="Arial" font-weight="700" text-anchor="middle">23</text><rect x="60" y="560" width="520" height="60" rx="10" fill="#fffaf2" stroke="#d9a" stroke-width="2"/><text x="85" y="598" font-size="20" font-family="Microsoft JhengHei,Arial" font-weight="700" fill="#c0392b" text-anchor="start">VertexID / delay / arrival / required / slack</text></svg>