<svg xmlns="http://www.w3.org/2000/svg" width="1100" height="680" viewBox="0 0 1100 680">
<defs><marker id="arrow" viewBox="0 0 10 10" refX="9" refY="5" markerWidth="7" markerHeight="7" orient="auto"><path d="M0,0 L10,5 L0,10 z" fill="#34495e"/></marker></defs>
<rect width="1100" height="680" fill="#fbfdff"/><text x="42" y="48" font-size="30" font-family="Microsoft JhengHei,Arial" font-weight="700" fill="#1f3763">AOE Critical Path</text><text x="42" y="80" font-size="18" font-family="Microsoft JhengHei,Arial" fill="#445">Activity-on-Edge、earliest/latest、critical path</text><text x="60" y="120" font-size="22" font-family="Microsoft JhengHei,Arial" font-weight="700" fill="#d35400" text-anchor="start">Frame 7: 得到 project duration</text><line x1="100" y1="330" x2="260" y2="180" stroke="#d35400" stroke-width="5" stroke-linecap="round" marker-end="url(#arrow)"/><circle cx="180.0" cy="255.0" r="16" fill="#fff" stroke="#ccc"/><text x="180.0" y="261.0" font-size="15" font-family="Arial" text-anchor="middle">a=6</text><line x1="100" y1="330" x2="260" y2="470" stroke="#789" stroke-width="3" stroke-linecap="round" marker-end="url(#arrow)"/><circle cx="180.0" cy="400.0" r="16" fill="#fff" stroke="#ccc"/><text x="180.0" y="406.0" font-size="15" font-family="Arial" text-anchor="middle">a=4</text><line x1="260" y1="180" x2="470" y2="330" stroke="#d35400" stroke-width="5" stroke-linecap="round" marker-end="url(#arrow)"/><circle cx="365.0" cy="255.0" r="16" fill="#fff" stroke="#ccc"/><text x="365.0" y="261.0" font-size="15" font-family="Arial" text-anchor="middle">a=1</text><line x1="260" y1="470" x2="470" y2="330" stroke="#789" stroke-width="3" stroke-linecap="round" marker-end="url(#arrow)"/><circle cx="365.0" cy="400.0" r="16" fill="#fff" stroke="#ccc"/><text x="365.0" y="406.0" font-size="15" font-family="Arial" text-anchor="middle">a=1</text><line x1="470" y1="330" x2="680" y2="200" stroke="#d35400" stroke-width="5" stroke-linecap="round" marker-end="url(#arrow)"/><circle cx="575.0" cy="265.0" r="16" fill="#fff" stroke="#ccc"/><text x="575.0" y="271.0" font-size="15" font-family="Arial" text-anchor="middle">a=9</text><line x1="470" y1="330" x2="680" y2="460" stroke="#789" stroke-width="3" stroke-linecap="round" marker-end="url(#arrow)"/><circle cx="575.0" cy="395.0" r="16" fill="#fff" stroke="#ccc"/><text x="575.0" y="401.0" font-size="15" font-family="Arial" text-anchor="middle">a=7</text><line x1="680" y1="200" x2="920" y2="330" stroke="#d35400" stroke-width="5" stroke-linecap="round" marker-end="url(#arrow)"/><circle cx="800.0" cy="265.0" r="16" fill="#fff" stroke="#ccc"/><text x="800.0" y="271.0" font-size="15" font-family="Arial" text-anchor="middle">a=2</text><line x1="680" y1="460" x2="920" y2="330" stroke="#789" stroke-width="3" stroke-linecap="round" marker-end="url(#arrow)"/><circle cx="800.0" cy="395.0" r="16" fill="#fff" stroke="#ccc"/><text x="800.0" y="401.0" font-size="15" font-family="Arial" text-anchor="middle">a=4</text><circle cx="100" cy="330" r="28" fill="#fff0bf" stroke="#1f6fbf" stroke-width="3"/><text x="100" y="337" font-size="21" font-family="Arial" font-weight="700" text-anchor="middle">0</text><circle cx="260" cy="180" r="28" fill="#fff0bf" stroke="#1f6fbf" stroke-width="3"/><text x="260" y="187" font-size="21" font-family="Arial" font-weight="700" text-anchor="middle">1</text><circle cx="260" cy="470" r="28" fill="#fff0bf" stroke="#1f6fbf" stroke-width="3"/><text x="260" y="477" font-size="21" font-family="Arial" font-weight="700" text-anchor="middle">2</text><circle cx="470" cy="330" r="28" fill="#fff0bf" stroke="#1f6fbf" stroke-width="3"/><text x="470" y="337" font-size="21" font-family="Arial" font-weight="700" text-anchor="middle">4</text><circle cx="680" cy="200" r="28" fill="#fff0bf" stroke="#1f6fbf" stroke-width="3"/><text x="680" y="207" font-size="21" font-family="Arial" font-weight="700" text-anchor="middle">6</text><circle cx="680" cy="460" r="28" fill="#fff0bf" stroke="#1f6fbf" stroke-width="3"/><text x="680" y="467" font-size="21" font-family="Arial" font-weight="700" text-anchor="middle">7</text><circle cx="920" cy="330" r="28" fill="#fff0bf" stroke="#1f6fbf" stroke-width="3"/><text x="920" y="337" font-size="21" font-family="Arial" font-weight="700" text-anchor="middle">8</text><rect x="760" y="100" width="280" height="130" rx="10" fill="#f8fbff" stroke="#9ab" stroke-width="2"/><text x="785" y="140" font-size="22" font-family="Microsoft JhengHei,Arial" font-weight="700" fill="#1f3763" text-anchor="start">ee / le / slack</text><text x="785" y="180" font-size="18" font-family="Microsoft JhengHei,Arial" font-weight="700" fill="#c0392b" text-anchor="start">critical: slack = 0</text></svg>