<svg xmlns="http://www.w3.org/2000/svg" width="1280" height="720" viewBox="0 0 1280 720">
<rect width="100%" height="100%" fill="#f7fbff"/>
<style>.title{font:700 26px Arial;fill:#111}.sub{font:16px Arial;fill:#222}.small{font:13px Arial;fill:#333}.tiny{font:11px Arial;fill:#333}.box{fill:#e8f4ff;stroke:#6aa1d8;stroke-width:1.4}.hot{fill:#ffe6e6;stroke:#d93025;stroke-width:2.5}.ok{fill:#e6f4ea;stroke:#188038;stroke-width:2}.note{fill:#fff7d6;stroke:#d9a300;stroke-width:1.5}.gray{fill:#eeeeee;stroke:#888}.node{fill:#dbeafe;stroke:#2b73bd;stroke-width:2}.data{fill:#fef3c7;stroke:#b7791f;stroke-width:1.5}.link{fill:#ecfdf5;stroke:#047857;stroke-width:1.5}.ptr{stroke:#4b5563;stroke-width:2.2;fill:none;marker-end:url(#arr)}.redptr{stroke:#dc2626;stroke-width:3;fill:none;marker-end:url(#arrRed)}.dash{stroke:#777;stroke-width:2;fill:none;stroke-dasharray:6 5;marker-end:url(#arr)}</style>
<defs><marker id="arr" markerWidth="10" markerHeight="10" refX="8" refY="3" orient="auto"><path d="M0,0 L0,6 L9,3 z" fill="#4b5563"/></marker><marker id="arrRed" markerWidth="10" markerHeight="10" refX="8" refY="3" orient="auto"><path d="M0,0 L0,6 L9,3 z" fill="#dc2626"/></marker></defs>
<rect x="28" y="22" width="1220" height="72" rx="14" fill="#e8f2ff" stroke="#4f8bd6" stroke-width="2"/>
<text x="54" y="58" class="title">Sparse Matrix Input and Destructor</text>
<text x="54" y="82" class="sub">Step 7 / 8 - 由 C++ 程式輸出 step-by-step SVG 動畫</text>
<rect x="790" y="130" width="420" height="160" rx="8" class="box"/>
<text x="815" y="162" class="title">Step state table</text>
<text x="815" y="195" class="sub">Current step = 7</text>
<text x="815" y="225" class="small">Red = this step's active pointer/data change</text>
<text x="815" y="252" class="small">Blue/gray = existing structure or waiting nodes</text>
<rect x="790" y="315" width="420" height="190" rx="8" class="note"/>
<text x="815" y="348" class="title">Animation focus</text>
<text x="815" y="382" class="small">- 讀入 row col value</text>
<text x="815" y="406" class="small">- 建立 row/col header</text>
<text x="815" y="430" class="small">- destructor 逐列釋放節點</text>
<text x="60" y="135" class="sub">Sparse matrix input builds nodes; destructor releases row chains safely.</text>
<rect x="100" y="190" width="260" height="110" rx="8" class="note"/>
<text x="125" y="225" class="sub">Input triples: row col value</text>
<text x="125" y="255" class="small">(0,2,8), (2,1,6), (3,3,9)</text>
<rect x="430" y="200" width="90" height="50" rx="8" class="hot"/>
<text x="475" y="231" font-family="Arial" font-size="18" text-anchor="middle">0,2,8</text>
<rect x="560" y="260" width="90" height="50" rx="8" class="hot"/>
<text x="605" y="291" font-family="Arial" font-size="18" text-anchor="middle">2,1,6</text>
<rect x="690" y="320" width="90" height="50" rx="8" class="hot"/>
<text x="735" y="351" font-family="Arial" font-size="18" text-anchor="middle">3,3,9</text>
<text x="100" y="430" class="sub">Destructor: visit each row header, delete every node in that row, then delete headers.</text>
<line x1="430" y1="450" x2="560" y2="450" class="redptr"/>
<line x1="560" y1="450" x2="690" y2="450" class="redptr"/>
<rect x="80" y="640" width="820" height="42" rx="8" class="ok"/>
<text x="105" y="667" class="small">This SVG frame is generated by C++ program: 15_sparse_matrix_input_destructor.cpp. HTML only loads generated step_XX.svg files.</text>
</svg>
